<svg width="46" height="46" fill="none" xmlns="http://www.w3.org/2000/svg"><path d="M32.528 15.226c-.104-.388-.314-.8-.469-1.162C30.201 9.6 26.142 8 22.865 8c-4.388 0-9.22 2.942-9.865 9.006v1.24c0 .05.018.515.043.748.362 2.89 2.642 5.961 4.345 8.851 1.833 3.096 3.734 6.142 5.618 9.187 1.161-1.987 2.319-4 3.453-5.935.31-.568.669-1.136.979-1.678.206-.361.6-.722.78-1.058C30.051 25.006 33 21.626 33 18.297v-1.368c0-.36-.447-1.625-.472-1.703zm-9.583 6.22c-1.29 0-2.701-.646-3.398-2.427-.104-.283-.095-.851-.095-.903v-.8c0-2.27 1.927-3.303 3.604-3.303 2.065 0 3.662 1.652 3.662 3.716 0 2.065-1.708 3.716-3.773 3.716z" fill="#FFC59E"/></svg>