<svg width="46" height="46" fill="none" xmlns="http://www.w3.org/2000/svg"><path d="M35.44 30.73l-3.861-3.862c-.77-.766-2.043-.743-2.839.053l-1.945 1.945-.384-.214c-1.228-.68-2.91-1.613-4.678-3.383-1.774-1.774-2.708-3.458-3.39-4.687-.073-.13-.142-.256-.21-.375l1.305-1.304.642-.642c.797-.798.82-2.07.052-2.839l-3.86-3.862c-.768-.767-2.042-.744-2.84.054l-1.087 1.094.03.03a6.294 6.294 0 00-.897 1.581 6.554 6.554 0 00-.4 1.604c-.509 4.227 1.422 8.09 6.664 13.33 7.245 7.245 13.084 6.698 13.335 6.671a6.524 6.524 0 001.61-.404 6.27 6.27 0 001.575-.893l.024.022 1.102-1.08c.796-.797.818-2.07.052-2.84z" fill="#FFC59E"/></svg>