<svg width="26" height="26" fill="none" xmlns="http://www.w3.org/2000/svg"><g clip-path="url(#clip0_1693_3779)"><path fill-rule="evenodd" clip-rule="evenodd" d="M23.143 15.988s2.102 2.076 2.622 3.037a.16.16 0 01.023.045c.212.355.264.633.16.839-.175.339-.77.51-.971.524h-3.715c-.26 0-.797-.068-1.453-.52-.5-.35-.998-.926-1.48-1.489-.72-.836-1.343-1.561-1.974-1.561a.712.712 0 00-.234.039c-.477.15-1.082.83-1.082 2.641 0 .567-.448.89-.761.89h-1.702c-.58 0-3.598-.203-6.275-3.026C3.021 13.952.076 7.02.047 6.96c-.183-.448.201-.693.617-.693h3.752c.503 0 .667.305.782.578.132.313.624 1.566 1.43 2.974 1.305 2.29 2.107 3.223 2.748 3.223.12 0 .239-.031.343-.091.837-.46.681-3.45.642-4.067 0-.12-.001-1.335-.43-1.922-.307-.422-.83-.585-1.145-.645.084-.122.263-.31.494-.42.573-.286 1.609-.328 2.637-.328h.57c1.116.016 1.405.087 1.81.19.817.195.832.724.761 2.526-.02.515-.043 1.095-.043 1.777 0 .146-.006.308-.006.473-.025.925-.058 1.966.595 2.394a.54.54 0 00.282.08c.226 0 .904 0 2.74-3.152.806-1.393 1.43-3.034 1.473-3.158.037-.069.146-.263.279-.34.094-.05.2-.076.306-.073h4.414c.48 0 .807.072.87.254.108.296-.02 1.196-2.035 3.921-.34.454-.637.847-.898 1.19-1.827 2.397-1.827 2.518.108 4.338z" fill="#FFFEFE"/></g><defs><clipPath id="clip0_1693_3779"><path fill="#fff" d="M0 0h26v26H0z"/></clipPath></defs></svg>