<svg width="77" height="65" fill="none" xmlns="http://www.w3.org/2000/svg"><path fill-rule="evenodd" clip-rule="evenodd" d="M58.046 18.276l18.086 18.042a2.95 2.95 0 010 4.179 2.967 2.967 0 01-4.188 0l-6.79-6.774v28.322A2.958 2.958 0 0162.192 65H14.808a2.958 2.958 0 01-2.962-2.955V33.722l-6.79 6.775a2.954 2.954 0 01-2.094.865 2.955 2.955 0 01-2.095-.865 2.95 2.95 0 010-4.179L36.404.865a2.967 2.967 0 014.188 0l11.531 11.503 5.923 5.908zm-31.548 18.85a2.38 2.38 0 002.383 2.378 2.38 2.38 0 002.383-2.378 2.38 2.38 0 00-2.383-2.378 2.38 2.38 0 00-2.383 2.378zm8.06-8.131a2.646 2.646 0 012.649 2.642 2.645 2.645 0 01-2.648 2.642 2.645 2.645 0 01-2.648-2.642 2.645 2.645 0 012.648-2.642zm-2.543 14.172c0 3.573 2.903 6.47 6.485 6.47 3.581 0 6.485-2.897 6.485-6.47s-2.904-6.47-6.485-6.47c-3.582 0-6.485 2.896-6.485 6.47zm10.426-8.888a2.645 2.645 0 01-2.648-2.642 2.645 2.645 0 012.648-2.642 2.646 2.646 0 012.648 2.642 2.645 2.645 0 01-2.648 2.642zm3.294 2.847a2.38 2.38 0 002.383 2.378 2.381 2.381 0 002.384-2.378 2.38 2.38 0 00-2.384-2.378 2.38 2.38 0 00-2.383 2.378z" fill="#FFC59E"/></svg>