<svg width="26" height="26" fill="none" xmlns="http://www.w3.org/2000/svg"><g clip-path="url(#clip0_1683_3798)"><path fill-rule="evenodd" clip-rule="evenodd" d="M23.143 15.987s2.102 2.077 2.622 3.037c.01.014.018.03.023.046.212.355.264.633.16.838-.175.34-.77.51-.971.524h-3.715c-.26 0-.797-.067-1.453-.52-.5-.35-.998-.925-1.48-1.488-.72-.836-1.343-1.562-1.974-1.562a.712.712 0 00-.234.04c-.477.15-1.082.83-1.082 2.64 0 .568-.448.89-.761.89h-1.702c-.58 0-3.598-.203-6.275-3.025C3.021 13.952.076 7.02.047 6.959c-.183-.449.201-.693.617-.693h3.752c.503 0 .667.304.782.577.132.313.624 1.567 1.43 2.975 1.305 2.29 2.107 3.222 2.748 3.222.12 0 .239-.03.343-.09.837-.46.681-3.45.642-4.067 0-.12-.001-1.335-.43-1.923-.307-.421-.83-.585-1.145-.645.084-.122.263-.309.494-.42.573-.286 1.609-.327 2.637-.327h.57c1.116.015 1.405.087 1.81.19.817.195.832.724.761 2.526-.02.514-.043 1.094-.043 1.777 0 .145-.006.308-.006.473-.025.924-.058 1.965.595 2.393a.53.53 0 00.282.08c.226 0 .904 0 2.74-3.152.806-1.392 1.43-3.034 1.473-3.157.037-.07.146-.263.279-.341.094-.05.2-.075.306-.073h4.414c.48 0 .807.073.87.255.108.295-.02 1.196-2.035 3.92-.34.455-.637.847-.898 1.19-1.827 2.398-1.827 2.518.108 4.338z" fill="#59443F"/></g><defs><clipPath id="clip0_1683_3798"><path fill="#fff" d="M0 0h26v26H0z"/></clipPath></defs></svg>