<svg width="21" height="18" viewBox="0 0 21 18" fill="none" xmlns="http://www.w3.org/2000/svg">
<path d="M19.2106 0.154509C19.2106 0.154509 21.1531 -0.602992 20.9906 1.23651C20.9371 1.99401 20.4516 4.64551 20.0736 7.51301L18.7786 16.008C18.7786 16.008 18.6706 17.2525 17.6991 17.469C16.7281 17.685 15.2711 16.7115 15.0011 16.495C14.7851 16.3325 10.9541 13.8975 9.60515 12.7075C9.22715 12.3825 8.79515 11.7335 9.65915 10.976L15.3246 5.56501C15.9721 4.91601 16.6196 3.40101 13.9216 5.24051L6.36665 10.3805C6.36665 10.3805 5.50315 10.922 3.88465 10.435L0.376647 9.35251C0.376647 9.35251 -0.918353 8.54101 1.29415 7.72951C6.69065 5.18651 13.3291 2.58951 19.2106 0.154509Z" fill="#FFFEFE"/>
</svg>
