<svg width="26" height="26" viewBox="0 0 26 26" fill="none" xmlns="http://www.w3.org/2000/svg">
<g clip-path="url(#clip0_1693_3779)">
<path fill-rule="evenodd" clip-rule="evenodd" d="M23.1427 15.9879C23.1427 15.9879 25.2448 18.064 25.7648 19.0247C25.7749 19.0385 25.7828 19.0539 25.7882 19.0702C26.0001 19.4251 26.0521 19.7033 25.9481 19.9087C25.7726 20.248 25.1785 20.4183 24.977 20.4326H21.2616C21.0029 20.4326 20.4647 20.365 19.8095 19.9126C19.309 19.5629 18.8111 18.987 18.3288 18.4241C17.6086 17.5882 16.9859 16.8628 16.3554 16.8628C16.2758 16.8626 16.1967 16.8758 16.1214 16.9018C15.6443 17.0526 15.0385 17.7325 15.0385 19.5434C15.0385 20.1102 14.5913 20.4326 14.278 20.4326H12.5763C11.9965 20.4326 8.97792 20.2298 6.30122 17.4075C3.02132 13.9521 0.0755171 7.02046 0.0469171 6.95936C-0.136383 6.51086 0.248417 6.26646 0.664417 6.26646H4.41622C4.91932 6.26646 5.08312 6.57066 5.19752 6.84366C5.33012 7.15696 5.82152 8.41016 6.62752 9.81806C7.93272 12.1087 8.73482 13.0408 9.37572 13.0408C9.49613 13.0411 9.6145 13.0097 9.71892 12.9498C10.5561 12.4896 10.4001 9.49956 10.3611 8.88336C10.3611 8.76376 10.3598 7.54826 9.93082 6.96066C9.62402 6.53946 9.10142 6.37566 8.78552 6.31586C8.87002 6.19366 9.04942 6.00646 9.27952 5.89596C9.85282 5.60996 10.8889 5.56836 11.9172 5.56836H12.4879C13.6033 5.58396 13.8919 5.65546 14.2975 5.75816C15.1139 5.95316 15.1295 6.48226 15.058 8.28406C15.0372 8.79886 15.0151 9.37866 15.0151 10.0612C15.0151 10.2068 15.0086 10.3693 15.0086 10.5344C14.9839 11.4587 14.9514 12.5 15.604 12.9277C15.6887 12.9804 15.7864 13.0083 15.8861 13.0083C16.1123 13.0083 16.7896 13.0083 18.6265 9.85576C19.4325 8.46346 20.0565 6.82156 20.0994 6.69806C20.1358 6.62916 20.245 6.43546 20.3776 6.35746C20.4719 6.30727 20.5776 6.2822 20.6844 6.28466H25.0979C25.5789 6.28466 25.9052 6.35746 25.9689 6.53946C26.0755 6.83456 25.9481 7.73546 23.9331 10.4603C23.5938 10.914 23.2961 11.3066 23.0348 11.6498C21.2083 14.047 21.2083 14.1679 23.1427 15.9879Z" fill="#FFFEFE"/>
</g>
<defs>
<clipPath id="clip0_1693_3779">
<rect width="26" height="26" fill="white"/>
</clipPath>
</defs>
</svg>
