<svg width="26" height="26" viewBox="0 0 26 26" fill="none" xmlns="http://www.w3.org/2000/svg">
<g clip-path="url(#clip0_1683_3798)">
<path fill-rule="evenodd" clip-rule="evenodd" d="M23.1427 15.9874C23.1427 15.9874 25.2448 18.0635 25.7648 19.0242C25.7749 19.038 25.7828 19.0534 25.7882 19.0697C26.0001 19.4246 26.0521 19.7028 25.9481 19.9082C25.7726 20.2475 25.1785 20.4178 24.977 20.4321H21.2616C21.0029 20.4321 20.4647 20.3645 19.8095 19.9121C19.309 19.5624 18.8111 18.9865 18.3288 18.4236C17.6086 17.5877 16.9859 16.8623 16.3554 16.8623C16.2758 16.8621 16.1967 16.8753 16.1214 16.9013C15.6443 17.0521 15.0385 17.732 15.0385 19.5429C15.0385 20.1097 14.5913 20.4321 14.278 20.4321H12.5763C11.9965 20.4321 8.97792 20.2293 6.30122 17.407C3.02132 13.9516 0.0755171 7.01997 0.0469171 6.95887C-0.136383 6.51037 0.248417 6.26597 0.664417 6.26597H4.41622C4.91932 6.26597 5.08312 6.57017 5.19752 6.84317C5.33012 7.15647 5.82152 8.40967 6.62752 9.81757C7.93272 12.1082 8.73482 13.0403 9.37572 13.0403C9.49613 13.0406 9.6145 13.0092 9.71892 12.9493C10.5561 12.4891 10.4001 9.49907 10.3611 8.88287C10.3611 8.76327 10.3598 7.54777 9.93082 6.96017C9.62402 6.53897 9.10142 6.37517 8.78552 6.31537C8.87002 6.19317 9.04942 6.00597 9.27952 5.89547C9.85282 5.60947 10.8889 5.56787 11.9172 5.56787H12.4879C13.6033 5.58347 13.8919 5.65497 14.2975 5.75767C15.1139 5.95267 15.1295 6.48177 15.058 8.28357C15.0372 8.79837 15.0151 9.37817 15.0151 10.0607C15.0151 10.2063 15.0086 10.3688 15.0086 10.5339C14.9839 11.4582 14.9514 12.4995 15.604 12.9272C15.6887 12.9799 15.7864 13.0078 15.8861 13.0078C16.1123 13.0078 16.7896 13.0078 18.6265 9.85527C19.4325 8.46297 20.0565 6.82107 20.0994 6.69757C20.1358 6.62867 20.245 6.43497 20.3776 6.35697C20.4719 6.30678 20.5776 6.28171 20.6844 6.28417H25.0979C25.5789 6.28417 25.9052 6.35697 25.9689 6.53897C26.0755 6.83407 25.9481 7.73497 23.9331 10.4598C23.5938 10.9135 23.2961 11.3061 23.0348 11.6493C21.2083 14.0465 21.2083 14.1674 23.1427 15.9874V15.9874Z" fill="#59443F"/>
</g>
<defs>
<clipPath id="clip0_1683_3798">
<rect width="26" height="26" fill="white"/>
</clipPath>
</defs>
</svg>
