<svg width="130" height="130" fill="none" xmlns="http://www.w3.org/2000/svg"><path d="M83.5 53.448c.361-.121.82-.714.843-1.09.53-9.064-6.955-21.147-9.65-25.181-2.17.865-4.282 2.263-6.231 4.393 0 0-3.893 2.612-5.274 15.305 7.28 9.43 16.328 7.888 20.312 6.573z" fill="#fff"/><path d="M112.375 37.36l-11.928-2.912s-.34-2.878-3.722-4.06c-2.465-.864-10.96-5.746-19.318-4.022 3.16 4.81 10.19 16.666 9.634 26.148-.083 1.491-1.268 3.032-2.693 3.503a22.049 22.049 0 01-6.816 1.087c-4.33 0-9.766-1.332-14.665-6.45a98.361 98.361 0 00-.16 5.29C62.652 65.76 50.18 75.07 50.18 75.07l-1.661 3.443A45.063 45.063 0 0063.823 96.68c.299-4.69 1.475-8.363 2.836-11.123 2.58-5.243 6.197-8.153 8.043-9.385.397-10.821 3.91-13.984 6.84-14.707a3.08 3.08 0 012.595.53c.85.633 1.396 1.68 1.451 2.803.151 2.91 1.87 4.951 2.685 5.762 1.322.123 2.584.333 3.772.62l.11-1.02.907-8.816c.154-1.488 1.492-2.743 2.972-2.955 5.622-.819 18.147-4.149 18.961-17.68.094-1.493-1.167-2.994-2.62-3.35zm-18.583 3.143a1.523 1.523 0 11-.003-3.047 1.523 1.523 0 01.003 3.047z" fill="#fff"/><path d="M100.451 80.793c-.451-3.837-5.866-6.998-12.864-7.447 0 0-3.716-2.856-3.965-7.787-.04-.746-.599-1.488-1.323-1.31-1.87.46-5.045 2.861-5.203 13.825 0 0-10.17 5.13-10.905 19.922a44.462 44.462 0 0022.224 6.348l-.09-2.119c-.034-.747.507-1.565 1.206-1.827l8.662-3.248s4.063.227 5.753-2.823c.855-1.537 1.649-2.611 2.234-3.303.478-.57.471-1.384-.065-1.904-1.769-1.709-5.327-5.46-5.664-8.328zm-5.139 3.713a1.52 1.52 0 01-1.522-1.522 1.523 1.523 0 111.522 1.522zM15 43.287a4.645 4.645 0 004.645 4.645h7.122v6.812a5.032 5.032 0 1010.064 0v-6.812h7.122a4.645 4.645 0 000-9.29H36.83V31.83a5.032 5.032 0 00-10.064 0v6.812h-7.122A4.645 4.645 0 0015 43.287z" fill="#fff"/></svg>