<svg width="126" height="110" fill="none" xmlns="http://www.w3.org/2000/svg"><path d="M99.489 29.333a3.667 3.667 0 100-7.334 3.667 3.667 0 000 7.334zM92.156 44a3.667 3.667 0 100-7.333 3.667 3.667 0 000 7.333zm14.666 0a3.667 3.667 0 100-7.334 3.667 3.667 0 000 7.334z" fill="#FFC59E"/><path d="M92.155 7.333h-5.748C83.804 2.948 79.023 0 73.564 0H51.591c-5.459 0-10.24 2.948-12.842 7.333H33c-18.196 0-33 14.804-33 33v29.334c0 2.937 1.144 5.7 3.223 7.777a10.947 10.947 0 004.512 2.73 58.507 58.507 0 0011.332 28.359c1.804 2.407 5.582 1.732 6.445-1.146l6.846-22.823A10.968 10.968 0 0040.334 88c2.846 0 5.442-1.086 7.397-2.866A11.293 11.293 0 0055.244 88c2.846 0 5.442-1.086 7.398-2.866A11.293 11.293 0 0070.156 88c2.815 0 5.385-1.064 7.333-2.81A10.954 10.954 0 0084.822 88c3.136 0 5.97-1.32 7.976-3.432l6.845 22.819c.865 2.882 4.643 3.55 6.446 1.146a58.518 58.518 0 0011.332-28.359 10.947 10.947 0 004.512-2.73 10.926 10.926 0 003.222-7.777V40.333c0-18.196-14.803-33-33-33zm-40.564 0h21.973c4.186 0 7.591 3.406 7.591 7.591 0 1.504-.44 2.96-1.275 4.212l-9.433 14.15c-1.37 2.054-3.945 3.38-6.561 3.38h-2.617c-2.56 0-5.17-1.295-6.56-3.38l-9.434-14.15A7.57 7.57 0 0144 14.925c0-4.186 3.406-7.592 7.591-7.592zm-44.258 33c0-14.152 11.514-25.666 25.667-25.666h3.673c-.001.086-.006.171-.006.258 0 2.956.866 5.819 2.506 8.278l9.434 14.151a14.437 14.437 0 002.964 3.228c-.14 5.853-5.228 10.751-11.238 10.751h-11.63c-7.799 0-15.217 2.46-21.37 7.012V40.333zm13.448 57.304a51.159 51.159 0 01-5.692-17.755 10.972 10.972 0 003.688-2.438 14.142 14.142 0 019.29-4.095l-7.286 24.288zM44 77a3.67 3.67 0 01-3.667 3.667A3.67 3.67 0 0136.667 77v-3.667h3.666c1.232 0 2.456-.07 3.667-.205V77zm14.911 0a3.67 3.67 0 01-3.667 3.667c-2.083 0-3.91-1.714-3.91-3.667v-5.553a33.242 33.242 0 007.577-3.822V77zm14.911 0a3.67 3.67 0 01-3.666 3.667c-2.084 0-3.912-1.714-3.912-3.667v-9.375a33.25 33.25 0 007.578 3.822V77zm14.667 0a3.67 3.67 0 01-3.667 3.667A3.67 3.67 0 0181.155 77v-3.872c1.212.135 2.436.205 3.667.205h3.667V77zm15.885 20.637l-7.286-24.288a14.145 14.145 0 019.29 4.095 10.972 10.972 0 003.689 2.438 51.154 51.154 0 01-5.693 17.755zm12.373-25.378a3.667 3.667 0 01-5.184 0 21.517 21.517 0 00-15.11-6.26h-11.63c-7.451 0-14.552-3.237-19.484-8.882a3.667 3.667 0 00-5.523 0C54.885 62.762 47.783 66 40.333 66H28.704a21.519 21.519 0 00-15.112 6.259 3.668 3.668 0 01-5.184 0 3.67 3.67 0 010-5.186c5.419-5.42 12.626-8.406 20.295-8.406h11.63c4.891 0 9.526-1.898 13.052-5.345 2.717-2.656 4.5-5.969 5.195-9.562.883.157 1.782.24 2.69.24h2.616c.987 0 1.965-.097 2.921-.283 1.593 8.498 9.063 14.95 18.015 14.95h11.63c7.669 0 14.877 2.985 20.295 8.407a3.669 3.669 0 010 5.185zm1.075-13.914c-6.153-4.552-13.571-7.012-21.37-7.012h-11.63c-6.047 0-10.97-4.906-10.999-10.947a14.397 14.397 0 002.725-3.032l9.434-14.15a14.879 14.879 0 002.507-8.28c0-.086-.005-.171-.007-.258h3.673c14.153 0 25.667 11.514 25.667 25.667v18.012z" fill="#FFC59E"/><path d="M25.667 29.333a3.667 3.667 0 100-7.333 3.667 3.667 0 000 7.333zM18.334 44a3.667 3.667 0 100-7.333 3.667 3.667 0 000 7.333zM33 44a3.667 3.667 0 100-7.333A3.667 3.667 0 0033 44z" fill="#FFC59E"/></svg>