<svg width="142" height="112" fill="none" xmlns="http://www.w3.org/2000/svg"><mask id="a" maskUnits="userSpaceOnUse" x="0" y="0" width="142" height="112" fill="#000"><path fill="#fff" d="M0 0h142v112H0z"/><path fill-rule="evenodd" clip-rule="evenodd" d="M34.507 111C18.729 111 9.816 94.784 6.715 87.813-1.895 68.514-.72 48.448 9.862 34.14c1.622-2.193 3.416-3.863 4.497-4.869.405-.377.71-.66.867-.844a30 30 0 0111.387-5.973c3.336-.913 7.631-1.015 8.823-.916 3.134.273 10.178 3.072 12.609 7.015.438.71.79 1.47 1.051 2.264a13.448 13.448 0 01-1.215 10.534c5.185-.957 11.977-3.387 11.977-9.654V6.116A5.116 5.116 0 0164.974 1h11.331a5.116 5.116 0 015.116 5.116v25.582c0 6.267 6.792 8.697 11.977 9.654a13.448 13.448 0 01-1.215-10.534c.26-.794.613-1.554 1.052-2.264 2.43-3.942 9.475-6.742 12.609-7.015 1.191-.099 5.486.003 8.823.916a30.002 30.002 0 0111.386 5.973c.157.183.462.467.867.844h.001c1.08 1.006 2.875 2.676 4.496 4.869 10.583 14.307 11.757 34.373 3.147 53.672-3.101 6.97-12.013 23.187-27.792 23.187a26.665 26.665 0 01-9.897-1.845c-.283-.103-1.018-.541-1.888-1.117-5.024-2.715-14.397-10.17-9.563-28.738a23.91 23.91 0 016.938-7.974 68.731 68.731 0 01-9.432-3.934l-.304-.154c-3.312-1.639-7.252-2.709-11.237-3.033-4.565.144-9.152 1.22-12.813 3.033l-.305.154a68.736 68.736 0 01-9.432 3.934 23.911 23.911 0 016.938 7.974c4.693 18.025-4.002 25.577-9.111 28.487-1.028.697-1.939 1.25-2.262 1.368A26.664 26.664 0 0134.507 111zm55.437-13.363c.18.23.366.474.56.729 1.53 2.011 3.554 4.668 7.056 6.036 3.298 1.289 6.473 1.5 9.212 1.481 12.765 0 20.424-14.09 23.118-20.15 7.851-17.598 6.884-35.747-2.586-48.55a24.344 24.344 0 00-21.033-10.535c-3.658.31-8.1 2.23-9.21 5.733a10.05 10.05 0 003.774 10.178 2.557 2.557 0 01-1.653 4.513c-.933 0-22.867-.202-22.867-15.374V6.116h-11.35v25.582c0 15.172-21.934 15.374-22.868 15.374a2.558 2.558 0 01-1.653-4.513 10.051 10.051 0 003.774-10.178c-1.11-3.503-5.552-5.424-9.21-5.733a24.343 24.343 0 00-21.033 10.534c-9.47 12.804-10.437 30.953-2.586 48.55 2.694 6.061 10.353 20.151 23.118 20.151 2.74.019 5.914-.192 9.212-1.481 3.503-1.368 5.526-4.025 7.057-6.036l.001-.002c.14-.184.275-.362.407-.533 1.689-4.43 2.382-9.93.157-16.137-2.502-4.413-6.087-7.339-10.465-9.132a2.558 2.558 0 011.038-4.889l.039-.003c.463-.038 5.118-.413 14.031-4.87l.307-.153a30.688 30.688 0 0114.31-3.183 30.688 30.688 0 0114.31 3.183l.306.153c8.914 4.457 13.568 4.832 14.032 4.87l.038.003a2.558 2.558 0 011.039 4.889c-4.38 1.793-7.964 4.719-10.465 9.132-2.193 6.116-1.552 11.547.083 15.943zM72.649 52.163V41.93a2.558 2.558 0 00-5.117 0v10.233a2.558 2.558 0 105.117 0zM18.08 40.223a34.558 34.558 0 00-5.991 13.58 2.558 2.558 0 002.504 3.082 2.558 2.558 0 002.5-2.047 29.573 29.573 0 015.098-11.588 14.99 14.99 0 0111.243-6.436 2.558 2.558 0 000-5.117 19.938 19.938 0 00-15.354 8.527zm107.55 38.506a34.555 34.555 0 01-5.991 13.578 19.938 19.938 0 01-15.354 8.526 2.558 2.558 0 110-5.116 14.992 14.992 0 0011.243-6.436 29.573 29.573 0 005.098-11.588 2.558 2.558 0 013.026-1.993 2.558 2.558 0 011.978 3.029z"/></mask><path fill-rule="evenodd" clip-rule="evenodd" d="M34.507 111C18.729 111 9.816 94.784 6.715 87.813-1.895 68.514-.72 48.448 9.862 34.14c1.622-2.193 3.416-3.863 4.497-4.869.405-.377.71-.66.867-.844a30 30 0 0111.387-5.973c3.336-.913 7.631-1.015 8.823-.916 3.134.273 10.178 3.072 12.609 7.015.438.71.79 1.47 1.051 2.264a13.448 13.448 0 01-1.215 10.534c5.185-.957 11.977-3.387 11.977-9.654V6.116A5.116 5.116 0 0164.974 1h11.331a5.116 5.116 0 015.116 5.116v25.582c0 6.267 6.792 8.697 11.977 9.654a13.448 13.448 0 01-1.215-10.534c.26-.794.613-1.554 1.052-2.264 2.43-3.942 9.475-6.742 12.609-7.015 1.191-.099 5.486.003 8.823.916a30.002 30.002 0 0111.386 5.973c.157.183.462.467.867.844h.001c1.08 1.006 2.875 2.676 4.496 4.869 10.583 14.307 11.757 34.373 3.147 53.672-3.101 6.97-12.013 23.187-27.792 23.187a26.665 26.665 0 01-9.897-1.845c-.283-.103-1.018-.541-1.888-1.117-5.024-2.715-14.397-10.17-9.563-28.738a23.91 23.91 0 016.938-7.974 68.731 68.731 0 01-9.432-3.934l-.304-.154c-3.312-1.639-7.252-2.709-11.237-3.033-4.565.144-9.152 1.22-12.813 3.033l-.305.154a68.736 68.736 0 01-9.432 3.934 23.911 23.911 0 016.938 7.974c4.693 18.025-4.002 25.577-9.111 28.487-1.028.697-1.939 1.25-2.262 1.368A26.664 26.664 0 0134.507 111zm55.437-13.363c.18.23.366.474.56.729 1.53 2.011 3.554 4.668 7.056 6.036 3.298 1.289 6.473 1.5 9.212 1.481 12.765 0 20.424-14.09 23.118-20.15 7.851-17.598 6.884-35.747-2.586-48.55a24.344 24.344 0 00-21.033-10.535c-3.658.31-8.1 2.23-9.21 5.733a10.05 10.05 0 003.774 10.178 2.557 2.557 0 01-1.653 4.513c-.933 0-22.867-.202-22.867-15.374V6.116h-11.35v25.582c0 15.172-21.934 15.374-22.868 15.374a2.558 2.558 0 01-1.653-4.513 10.051 10.051 0 003.774-10.178c-1.11-3.503-5.552-5.424-9.21-5.733a24.343 24.343 0 00-21.033 10.534c-9.47 12.804-10.437 30.953-2.586 48.55 2.694 6.061 10.353 20.151 23.118 20.151 2.74.019 5.914-.192 9.212-1.481 3.503-1.368 5.526-4.025 7.057-6.036l.001-.002c.14-.184.275-.362.407-.533 1.689-4.43 2.382-9.93.157-16.137-2.502-4.413-6.087-7.339-10.465-9.132a2.558 2.558 0 011.038-4.889l.039-.003c.463-.038 5.118-.413 14.031-4.87l.307-.153a30.688 30.688 0 0114.31-3.183 30.688 30.688 0 0114.31 3.183l.306.153c8.914 4.457 13.568 4.832 14.032 4.87l.038.003a2.558 2.558 0 011.039 4.889c-4.38 1.793-7.964 4.719-10.465 9.132-2.193 6.116-1.552 11.547.083 15.943zM72.649 52.163V41.93a2.558 2.558 0 00-5.117 0v10.233a2.558 2.558 0 105.117 0zM18.08 40.223a34.558 34.558 0 00-5.991 13.58 2.558 2.558 0 002.504 3.082 2.558 2.558 0 002.5-2.047 29.573 29.573 0 015.098-11.588 14.99 14.99 0 0111.243-6.436 2.558 2.558 0 000-5.117 19.938 19.938 0 00-15.354 8.527zm107.55 38.506a34.555 34.555 0 01-5.991 13.578 19.938 19.938 0 01-15.354 8.526 2.558 2.558 0 110-5.116 14.992 14.992 0 0011.243-6.436 29.573 29.573 0 005.098-11.588 2.558 2.558 0 013.026-1.993 2.558 2.558 0 011.978 3.029z" fill="#FFC59E"/><path d="M6.715 87.813l.914-.407-.914.407zM34.507 111l.006-1h-.006v1zM9.862 34.14l-.804-.594.804.595zm4.497-4.868l-.651-.76-.016.014-.015.014.682.732zm0 0l.65.76.016-.014.015-.014-.681-.732zm.867-.844l-.643-.765-.062.051-.052.061.757.653zm11.387-5.973l.264.965-.264-.965zm8.823-.916l.086-.996h-.003l-.083.996zm12.609 7.015l-.852.524.852-.524zm1.051 2.264l.958-.287-.004-.013-.004-.012-.95.312zm-1.215 10.534l-.868-.497-1.072 1.872 2.121-.392-.181-.983zm45.517 0l-.181.983 2.121.392-1.072-1.872-.868.497zm-1.215-10.534l-.95-.312-.004.012-.004.013.958.287zm1.052-2.264l.85.524-.85-.524zm12.609-7.015l-.083-.996h-.004l.087.996zm8.823.916l.264-.964-.264.964zm11.386 5.973l.757-.653-.052-.06-.062-.052-.643.765zm.867.844l-.681.732.006.005.006.006.669-.743zm0 0l.695-.72-.013-.012-.013-.011-.669.743zm.001 0l-.695.72.007.006.006.006.682-.732zm4.496 4.869l-.804.594.804-.594zm3.147 53.672l-.913-.408-.001.001.914.407zM106.772 111v-1h-.005l.005 1zm-9.897-1.845l.365-.931-.011-.004-.011-.004-.343.939zm-1.888-1.117l.553-.834-.038-.024-.04-.022-.475.88zM85.424 79.3l-.88-.474-.057.106-.03.116.968.252zm6.938-7.974l.59.807 1.565-1.145-1.84-.61-.315.948zm-9.432-3.934l.453-.892-.002-.001-.45.893zm-.304-.154l.45-.893-.006-.003-.444.896zm-11.237-3.033l.08-.997-.055-.005-.057.002.032 1zm-12.813 3.033l-.444-.896-.007.003.45.893zm-.305.154l-.45-.893-.002.001.452.892zm-9.432 3.934l-.315-.949-1.84.611 1.565 1.145.59-.807zm6.938 7.974l.968-.252-.03-.116-.057-.106-.881.474zm-9.111 28.487l-.495-.869-.034.02-.032.022.56.827zm-2.262 1.368l-.342-.939-.012.004-.011.004.365.931zm46.1-10.79l-.796.607.796-.606zm-.56-.728l-.938.349.055.145.095.123.788-.617zm7.617 6.765l-.364.932.364-.932zm9.211 1.481v-1h-.007l.007 1zm23.118-20.15l-.913-.407h-.001l.914.407zm-2.586-48.55l-.824.566.009.014.011.014.804-.595zm-21.033-10.535l-.04-1-.022.002-.022.001.084.997zm-9.21 5.733l-.953-.303-.014.044-.01.045.978.214zm3.774 10.178l.645-.764-.021-.018-.023-.017-.601.8zm.751 2.835l.939.343-.939-.343zm-2.404 1.678l.001-1v1zM76.315 6.116h1v-1h-1v1zm-11.35 0v-1h-1v1h1zM42.096 47.072v-1 1zm-2.404-1.678l-.94.343.94-.343zm.751-2.835l-.601-.798-.022.016-.022.018.645.764zm3.774-10.178l.976-.214-.01-.045-.013-.044-.953.303zm-9.21-5.733l.085-.997-.023-.002h-.022l-.04.999zM13.975 37.182l.804.595.01-.014.01-.014-.823-.567zm-2.586 48.55l.914-.405v-.001l-.914.407zm23.118 20.151l.007-1h-.007v1zm9.212-1.481l.364.932-.364-.932zm7.057-6.036l-.795-.607.795.607zm.001-.002l.795.607v-.002l-.795-.605zm.407-.533l.792.612.09-.117.053-.139-.935-.356zm.157-16.137l.941-.337-.029-.081-.042-.075-.87.493zm-10.465-9.132l-.413.91.017.008.017.007.379-.925zm1.038-4.889l.007 1 .256-.001.224-.125-.487-.874zm.039-.003l.08.996-.08-.996zm14.031-4.87l-.447-.894.447.894zm.307-.153l-.444-.897-.003.002.447.895zm14.31-3.183l-.023 1h.045l-.022-1zm14.31 3.183l.447-.895-.004-.002-.444.897zm.306.153l.448-.894-.448.894zm14.032 4.87l-.08.996.08-.996zm.038.003l-.486.874.224.125.256.001.006-1zm2.486 2.027l-.978.207.978-.207zm-1.447 2.862l.379.925.016-.007.017-.007-.412-.911zm-10.465 9.132l-.87-.493-.043.075-.029.08.942.338zM12.09 53.802l.978.206.002-.008-.98-.198zm5.99-13.578l.808.59.007-.01.007-.01-.821-.57zM14.068 56.83l-.206.979h.006l.2-.98zm.527.054l-.002 1h.005l-.003-1zm2.5-2.047l.98.2v-.002l-.98-.198zm5.098-11.588l.808.59.007-.011.008-.011-.823-.568zm11.243-6.436v-1h-.037l-.036.002.073.998zm0-5.117v-1h-.026l-.025.002.05.998zm86.204 60.61l-.807-.591-.007.01-.007.01.821.57zm5.991-13.58l-.979-.205-.001.008.98.198zm-21.345 22.105v1h.025l.026-.001-.051-.999zm0-5.116v1h.036l.037-.002-.073-.998zm11.243-6.436l-.808-.59-.008.011-.007.01.823.569zm5.098-11.588l-.98-.2v.002l.98.198zm2.499-2.047l.002-1h-.004l.002 1zm.527.054l.206-.979h-.005l-.201.979zM5.802 88.219c1.571 3.534 4.628 9.443 9.323 14.483C19.824 107.746 26.243 112 34.507 112v-2c-7.514 0-13.441-3.855-17.918-8.661-4.481-4.811-7.43-10.495-8.96-13.933l-1.827.813zm3.256-54.673C-1.783 48.203-2.922 68.666 5.802 88.22l1.827-.815C-.868 68.362.34 48.693 10.666 34.735l-1.608-1.19zm4.62-5.006c-1.083 1.007-2.938 2.732-4.62 5.006l1.608 1.19c1.561-2.112 3.295-3.727 4.374-4.732l-1.363-1.464zm.03-.027l1.301 1.518-1.301-1.518zm.761-.738c-.112.13-.362.365-.792.765l1.363 1.464c.381-.355.74-.687.944-.923l-1.515-1.306zm11.88-6.284a31.002 31.002 0 00-11.766 6.172l1.287 1.53a29 29 0 0111.007-5.773l-.528-1.93zm9.17-.948c-1.288-.107-5.703-.002-9.17.948l.528 1.929c3.205-.878 7.38-.975 8.476-.884l.166-1.993zm13.377 7.486c-1.362-2.209-3.931-3.998-6.445-5.253-2.526-1.261-5.196-2.082-6.929-2.233l-.173 1.992c1.4.122 3.82.838 6.208 2.03 2.4 1.198 4.568 2.78 5.636 4.513l1.703-1.05zm1.15 2.477c-.285-.868-.67-1.7-1.15-2.477l-1.703 1.05c.397.643.717 1.332.953 2.05l1.9-.623zM48.75 41.849a14.448 14.448 0 001.305-11.318l-1.916.573c.976 3.267.57 6.792-1.125 9.751l1.736.994zm10.11-10.151c0 2.695-1.433 4.59-3.586 5.977-2.185 1.407-5.03 2.224-7.574 2.694l.363 1.966c2.642-.487 5.786-1.364 8.293-2.978 2.539-1.634 4.503-4.088 4.503-7.66h-2zm0-25.582v25.582h2V6.116h-2zM64.973 0a6.116 6.116 0 00-6.116 6.116h2A4.116 4.116 0 0164.974 2V0zm1.098 0h-1.098v2h1.098V0zm9.135 0h-9.135v2h9.135V0zm1.098 0h-1.098v2h1.098V0zm6.116 6.116A6.116 6.116 0 0076.305 0v2a4.116 4.116 0 014.116 4.116h2zm0 25.582V6.116h-2v25.582h2zm11.159 8.67c-2.544-.469-5.389-1.286-7.573-2.693-2.154-1.386-3.586-3.282-3.586-5.977h-2c0 3.571 1.964 6.025 4.503 7.659 2.507 1.614 5.651 2.49 8.293 2.978l.363-1.967zm-2.355-9.837a14.448 14.448 0 001.306 11.318l1.735-.994a12.448 12.448 0 01-1.125-9.751l-1.916-.573zm1.158-2.502a11.642 11.642 0 00-1.15 2.477l1.9.623a9.632 9.632 0 01.953-2.05l-1.703-1.05zm13.374-7.486c-1.733.15-4.403.972-6.928 2.233-2.515 1.255-5.084 3.044-6.446 5.253l1.703 1.05c1.069-1.734 3.237-3.316 5.636-4.514 2.388-1.192 4.807-1.908 6.208-2.03l-.173-1.992zm9.174.948c-3.468-.95-7.883-1.055-9.17-.948l.166 1.993c1.095-.091 5.27.006 8.476.884l.528-1.93zm11.765 6.172a30.993 30.993 0 00-11.765-6.172l-.528 1.929a28.995 28.995 0 0111.006 5.774l1.287-1.531zm.906.877c-.43-.4-.68-.635-.792-.765l-1.514 1.306c.203.236.562.568.943.923l1.363-1.464zm-.013-.011l-1.338 1.486 1.338-1.486zm.026.023l-1.389 1.44 1.389-1.44zm4.606 4.994c-1.682-2.274-3.537-3.999-4.619-5.006l-1.363 1.464c1.079 1.005 2.813 2.62 4.374 4.731l1.608-1.19zm3.256 54.674c8.725-19.554 7.586-40.017-3.256-54.674l-1.608 1.19c10.325 13.958 11.534 33.626 3.038 52.67l1.826.814zM106.772 112c8.264 0 14.683-4.254 19.382-9.298 4.695-5.04 7.752-10.95 9.323-14.483l-1.827-.813c-1.529 3.438-4.478 9.122-8.959 13.933-4.478 4.806-10.404 8.661-17.919 8.661v2zm-10.263-1.914A27.669 27.669 0 00106.778 112l-.011-2a25.661 25.661 0 01-9.527-1.776l-.73 1.862zm-2.074-1.214c.444.294.86.557 1.206.762.32.19.65.373.891.461l.686-1.879-.044-.02a3.535 3.535 0 01-.124-.062 9.915 9.915 0 01-.389-.22c-.31-.184-.696-.428-1.121-.71l-1.105 1.668zm-9.978-29.824c-2.468 9.48-1.336 16.247 1.166 21.029 2.491 4.763 6.274 7.428 8.889 8.841l.95-1.76c-2.41-1.302-5.825-3.722-8.067-8.008-2.232-4.266-3.369-10.51-1.003-19.598l-1.935-.504zm7.314-8.529a24.912 24.912 0 00-7.227 8.307l1.761.947a22.91 22.91 0 016.648-7.64L91.77 70.52zm-9.293-2.235a69.723 69.723 0 009.569 3.991l.63-1.898a67.734 67.734 0 01-9.294-3.877l-.905 1.784zm-.302-.153l.304.154.9-1.786-.304-.154-.9 1.786zm-10.868-2.93c3.868.315 7.684 1.354 10.874 2.934l.888-1.793c-3.433-1.699-7.497-2.8-11.6-3.134l-.162 1.993zm-12.289 2.934c3.517-1.741 7.96-2.79 12.401-2.93l-.063-2c-4.688.148-9.419 1.253-13.225 3.137l.887 1.793zm-.298.15l.305-.154-.9-1.786-.305.154.9 1.786zm-9.566 3.99a69.722 69.722 0 009.569-3.991l-.905-1.784a67.727 67.727 0 01-9.295 3.877l.63 1.898zm7.503 6.551a24.91 24.91 0 00-7.228-8.307l-1.181 1.614a22.91 22.91 0 016.647 7.64l1.762-.947zm-9.497 29.83c2.661-1.515 6.29-4.259 8.633-9.001 2.35-4.759 3.346-11.406.95-20.607l-1.935.504c2.297 8.824 1.292 14.965-.808 19.217-2.109 4.268-5.382 6.755-7.83 8.149l.99 1.738zm-2.414 1.439c.268-.098.658-.319 1.042-.551.414-.251.914-.573 1.438-.929l-1.122-1.655c-.504.341-.974.644-1.352.873-.19.115-.351.208-.479.277a4.39 4.39 0 01-.155.08c-.042.02-.06.026-.057.026l.685 1.879zM34.501 112c3.514.02 6.999-.63 10.269-1.914l-.731-1.862A25.661 25.661 0 0134.513 110l-.012 2zM91.3 97.76a70.05 70.05 0 00-.568-.74l-1.575 1.234c.176.223.357.462.552.718L91.3 97.76zm6.625 5.711c-3.212-1.255-5.086-3.69-6.625-5.711l-1.591 1.212c1.523 2.001 3.695 4.879 7.489 6.362l.727-1.863zm8.841 1.412c-2.684.018-5.713-.19-8.84-1.412l-.728 1.863c3.467 1.354 6.787 1.568 9.582 1.549l-.014-2zm22.211-19.556c-1.327 2.986-3.865 7.916-7.612 12.085-3.75 4.172-8.607 7.471-14.592 7.471v2c6.78 0 12.135-3.746 16.08-8.134 3.947-4.391 6.585-9.535 7.952-12.61l-1.828-.812zm-2.476-47.55c9.207 12.448 10.217 30.199 2.477 47.549l1.826.814c7.962-17.845 7.038-36.394-2.695-49.553l-1.608 1.19zm-20.189-10.13a23.344 23.344 0 0120.169 10.102l1.648-1.133a25.343 25.343 0 00-21.897-10.967l.08 1.998zm-8.296 5.036c.452-1.427 1.611-2.612 3.185-3.494 1.568-.879 3.451-1.4 5.155-1.545l-.168-1.993c-1.955.166-4.12.76-5.965 1.794-1.84 1.031-3.456 2.558-4.114 4.633l1.907.605zm3.421 9.078a9.051 9.051 0 01-3.398-9.167l-1.953-.427a11.051 11.051 0 004.148 11.191l1.203-1.597zm1.089 3.976a3.557 3.557 0 00-1.045-3.942l-1.29 1.528c.5.423.682 1.112.457 1.727l1.878.687zm-3.344 2.335a3.556 3.556 0 003.344-2.335l-1.878-.687a1.558 1.558 0 01-1.464 1.022l-.002 2zM75.316 31.698c0 8.227 6.005 12.322 11.755 14.32 5.76 2.004 11.613 2.054 12.112 2.054v-2c-.434 0-6.016-.051-11.455-1.942-5.45-1.895-10.412-5.488-10.412-12.432h-2zm0-25.582v25.582h2V6.116h-2zm-10.35 1h11.35v-2h-11.35v2zm1 24.582V6.116h-2v25.582h2zm-23.87 16.374c.5 0 6.351-.05 12.112-2.053 5.75-2 11.755-6.094 11.755-14.321h-2c0 6.944-4.962 10.537-10.412 12.432-5.44 1.891-11.021 1.942-11.455 1.942v2zm-3.343-2.335a3.558 3.558 0 003.344 2.335l-.002-2c-.654 0-1.24-.408-1.464-1.022l-1.878.687zm1.045-3.942a3.558 3.558 0 00-1.045 3.942l1.878-.687a1.558 1.558 0 01.458-1.727l-1.29-1.528zm3.442-9.2a9.051 9.051 0 01-3.398 9.166l1.203 1.597a11.05 11.05 0 004.148-11.191l-1.953.427zm-8.317-4.95c1.704.143 3.588.665 5.155 1.544 1.574.882 2.733 2.067 3.185 3.494l1.907-.605c-.658-2.075-2.274-3.602-4.113-4.633-1.845-1.035-4.011-1.628-5.965-1.794l-.169 1.993zM14.8 37.748a23.343 23.343 0 0120.168-10.102l.08-1.998a25.343 25.343 0 00-21.897 10.967l1.649 1.133zm-2.498 47.577c-7.74-17.35-6.73-35.101 2.477-47.55l-1.607-1.189C3.438 49.748 2.514 68.296 10.476 86.14l1.826-.814zm22.205 19.557c-5.985 0-10.842-3.299-14.592-7.47-3.747-4.17-6.285-9.1-7.612-12.086l-1.828.812c1.367 3.075 4.006 8.219 7.953 12.61 3.944 4.388 9.299 8.134 16.079 8.134v-2zm8.848-1.412c-3.127 1.222-6.157 1.43-8.841 1.412l-.014 2c2.795.019 6.115-.195 9.583-1.549l-.728-1.863zm6.625-5.711c-1.539 2.02-3.413 4.456-6.625 5.711l.728 1.863c3.793-1.483 5.965-4.361 7.488-6.362l-1.59-1.212zm.003-.004l-.002.003 1.59 1.214v-.002l-1.588-1.215zm.41-.536c-.135.174-.272.355-.411.538l1.59 1.211.404-.526-1.583-1.223zm.006-15.188c2.132 5.944 1.47 11.196-.149 15.443l1.869.712c1.758-4.612 2.483-10.362.163-16.83l-1.883.675zm-9.902-8.545c4.188 1.716 7.592 4.497 9.974 8.7l1.74-.986c-2.621-4.624-6.387-7.693-10.956-9.564l-.758 1.85zm-2.047-3.995a3.558 3.558 0 002.013 3.98l.825-1.821a1.558 1.558 0 01-.881-1.743l-1.957-.416zm3.458-2.819a3.558 3.558 0 00-3.458 2.819l1.957.415a1.558 1.558 0 011.514-1.234l-.013-2zm-.036 0l-.038.003-.04.004a1.033 1.033 0 00-.366.12l.973 1.747a1.009 1.009 0 01-.379.12h-.006.017l-.16-1.994zm13.665-4.767c-8.8 4.4-13.331 4.74-13.665 4.767l.161 1.993c.593-.047 5.372-.459 14.398-4.972l-.894-1.788zm.307-.154l-.307.154.894 1.788.307-.153-.894-1.789zm14.779-3.287a31.688 31.688 0 00-14.776 3.285l.888 1.793a29.688 29.688 0 0113.843-3.079l.045-2zm14.731 3.285a31.688 31.688 0 00-14.776-3.285l.045 2c4.734-.106 9.487.92 13.843 3.078l.888-1.793zm.31.156l-.306-.154-.895 1.789.307.153.895-1.788zm13.665 4.767c-.334-.027-4.864-.367-13.664-4.767l-.895 1.788c9.026 4.513 13.805 4.924 14.398 4.972l.161-1.993zm.444.126a1.001 1.001 0 00-.365-.119l-.04-.004-.04-.003-.16 1.993.018.002h-.007a.845.845 0 01-.149-.028 1.048 1.048 0 01-.23-.093l.973-1.748zm2.978 2.693a3.557 3.557 0 00-3.458-2.819l-.012 2a1.558 1.558 0 011.514 1.234l1.956-.415zm-2.013 3.98a3.557 3.557 0 002.013-3.98l-1.956.415a1.559 1.559 0 01-.882 1.744l.825 1.822zm-10.007 8.715c2.382-4.203 5.785-6.984 9.974-8.7l-.758-1.85c-4.57 1.871-8.336 4.94-10.956 9.564l1.74.986zm.15 15.102c-1.567-4.214-2.18-9.4-.079-15.257l-1.883-.675c-2.285 6.374-1.615 12.05.088 16.629l1.874-.697zM71.65 41.93v10.233h2V41.93h-2zm-1.559-1.558c.861 0 1.559.698 1.559 1.558h2a3.558 3.558 0 00-3.559-3.558v2zm-1.558 1.558c0-.86.698-1.558 1.558-1.558v-2a3.558 3.558 0 00-3.558 3.558h2zm0 10.233V41.93h-2v10.233h2zm1.558 1.558c-.86 0-1.558-.698-1.558-1.558h-2a3.558 3.558 0 003.558 3.558v-2zm1.559-1.558c0 .86-.698 1.558-1.559 1.558v2a3.558 3.558 0 003.559-3.558h-2zM13.069 54a33.559 33.559 0 015.819-13.186l-1.614-1.181a35.557 35.557 0 00-6.165 13.971l1.96.396zm1.204 1.852a1.558 1.558 0 01-1.205-1.844l-1.957-.411a3.558 3.558 0 002.75 4.213l.412-1.958zm.322.033c-.11 0-.22-.012-.328-.034l-.4 1.96c.239.048.482.073.725.074l.003-2zm1.518-1.247a1.558 1.558 0 01-1.522 1.247l.006 2a3.558 3.558 0 003.476-2.847l-1.96-.4zm5.27-11.977a30.574 30.574 0 00-5.27 11.98l1.96.395A28.575 28.575 0 0123 43.839l-1.616-1.178zm11.979-6.845a15.991 15.991 0 00-11.993 6.866l1.646 1.136a13.99 13.99 0 0110.493-6.007l-.146-1.995zm1.63-1.56c0 .86-.697 1.558-1.557 1.558v2a3.558 3.558 0 003.558-3.559h-2zm-1.557-1.559c.86 0 1.558.698 1.558 1.558h2a3.558 3.558 0 00-3.558-3.558v2zm-14.533 8.098a18.938 18.938 0 0114.584-8.099l-.102-1.997a20.938 20.938 0 00-16.124 8.954l1.642 1.142zm101.544 52.102a35.567 35.567 0 006.164-13.972l-1.96-.395a33.571 33.571 0 01-5.818 13.186l1.614 1.18zm-16.11 8.934a20.938 20.938 0 0016.124-8.954l-1.642-1.142a18.94 18.94 0 01-14.584 8.099l.102 1.997zm-3.609-3.557a3.558 3.558 0 003.558 3.558v-2a1.558 1.558 0 01-1.558-1.558h-2zm3.558-3.558a3.558 3.558 0 00-3.558 3.558h2c0-.86.697-1.558 1.558-1.558v-2zm10.42-6.004a13.992 13.992 0 01-10.493 6.007l.146 1.995a15.992 15.992 0 0011.993-6.866l-1.646-1.136zm4.941-11.218a28.58 28.58 0 01-4.926 11.197l1.616 1.178a30.566 30.566 0 005.27-11.98l-1.96-.395zm3.477-2.849a3.56 3.56 0 00-3.477 2.847l1.96.4a1.558 1.558 0 011.522-1.247l-.005-2zm.73.074a3.643 3.643 0 00-.726-.074l-.003 2c.11 0 .22.011.328.034l.401-1.96zm2.755 4.214a3.557 3.557 0 00-2.75-4.213l-.411 1.957a1.558 1.558 0 011.204 1.845l1.957.411z" fill="#FFC59E" mask="url(#a)"/></svg>