<svg width="110" height="110" fill="none" xmlns="http://www.w3.org/2000/svg"><path d="M100.332 45.117h-3.223V18.784c3.752-1.33 6.446-4.914 6.446-9.116 0-5.33-4.337-9.668-9.668-9.668H68.106c-5.331 0-9.668 4.337-9.668 9.668 0 4.202 2.693 7.786 6.445 9.116v26.333H45.117V18.784c3.752-1.33 6.446-4.914 6.446-9.116 0-5.33-4.338-9.668-9.669-9.668h-25.78c-5.332 0-9.669 4.337-9.669 9.668 0 4.202 2.694 7.786 6.446 9.116v26.333H9.668C4.338 45.117 0 49.454 0 54.785v45.547C0 105.663 4.337 110 9.668 110h90.664c5.331 0 9.668-4.337 9.668-9.668V54.785c0-5.33-4.337-9.668-9.668-9.668zM68.106 6.445h25.78a3.226 3.226 0 013.223 3.223 3.226 3.226 0 01-3.222 3.223 3.223 3.223 0 00-3.223 3.222v16.114h-9.668a3.223 3.223 0 000 6.445h9.668v6.445H71.328V16.113a3.223 3.223 0 00-3.222-3.222 3.226 3.226 0 01-3.223-3.223 3.226 3.226 0 013.223-3.223zm12.89 58.008h9.668v16.543c0 5.331-4.337 9.668-9.668 9.668-5.33 0-9.668-4.337-9.668-9.668V51.563h19.336v6.445h-9.668a3.223 3.223 0 000 6.445zM16.113 6.445h25.782a3.226 3.226 0 013.222 3.223 3.226 3.226 0 01-3.222 3.223 3.223 3.223 0 00-3.223 3.222v16.114h-9.668a3.223 3.223 0 000 6.445h9.668v6.445H19.336V16.113a3.223 3.223 0 00-3.223-3.222 3.226 3.226 0 01-3.222-3.223 3.226 3.226 0 013.222-3.223zm12.89 58.008h9.669v16.543c0 5.331-4.337 9.668-9.668 9.668-5.331 0-9.668-4.337-9.668-9.668V51.563h19.336v6.445h-9.668a3.223 3.223 0 000 6.445zm74.552 35.879a3.227 3.227 0 01-3.223 3.223H9.668a3.227 3.227 0 01-3.223-3.223V54.785a3.226 3.226 0 013.223-3.222h3.223v29.433c0 8.885 7.228 16.113 16.113 16.113s16.113-7.228 16.113-16.113V51.563h19.766v29.433c0 8.885 7.228 16.113 16.113 16.113S97.11 89.881 97.11 80.996V51.563h3.223a3.227 3.227 0 013.223 3.222v45.547z" fill="#FFC59E"/></svg>