<svg width="110" height="110" fill="none" xmlns="http://www.w3.org/2000/svg"><path d="M83.992 34.951a29.065 29.065 0 00-.41-4.399c7.662 5.266 16.211 2.493 19.157-5.104 3.601-9.286-4.843-19.185-15.087-23.39-9.035-3.708-19.006-2.735-24.277 5.63a28.908 28.908 0 00-8.379-1.235 28.9 28.9 0 00-8.38 1.236c-5.27-8.366-15.24-9.339-24.276-5.63C12.096 6.263 3.653 16.162 7.254 25.449c2.939 7.58 11.477 10.381 19.157 5.103a29.052 29.052 0 00-.41 4.4C16.363 36.935 0 41.736 0 51.566c0 2.12.795 4.048 2.09 5.737l.004.006v.001l23.9 31.224v11.798a3.22 3.22 0 001.652 2.813c.5.28 12.445 6.854 27.35 6.854 14.905 0 26.85-6.574 27.35-6.854a3.222 3.222 0 001.652-2.813V88.535l23.9-31.225c1.289-1.657 2.094-3.634 2.094-5.744 0-9.826-16.351-14.628-26-16.615zm1.213-26.93c7.23 2.968 13.58 9.796 11.525 15.098-1.778 4.585-7 5.208-11.73.19l-.046-.05c-2.952-3.132-6.59-6.991-9.888-8.72a29.177 29.177 0 00-5.66-4.246c4.7-6.137 13.1-3.38 15.799-2.272zm-30.209 4.877c12.438 0 22.557 10.119 22.557 22.557v12.89c0 5.705-2.101 11.08-5.938 15.251-4.154.448-8.636.738-13.397.83v-8.302l5.501-5.5a3.223 3.223 0 00-2.278-5.502H48.55a3.223 3.223 0 00-2.279 5.501l5.502 5.501v8.3a152.51 152.51 0 01-13.398-.828c-3.836-4.171-5.937-9.546-5.937-15.252v-12.89c0-12.437 10.119-22.556 22.557-22.556zM25.036 23.26l-.045.048c-4.728 5.018-9.95 4.396-11.729-.19-2.082-5.37 4.427-12.185 11.525-15.098 2.7-1.108 11.1-3.865 15.798 2.272a29.168 29.168 0 00-5.66 4.246c-3.298 1.73-6.937 5.59-9.888 8.722zM6.696 52.571c-.168-.354-.25-.682-.25-1.004 0-2.34 5.385-6.919 19.549-10.029v6.806c0 4.977 1.245 9.757 3.584 13.992-5.866-1.066-20.361-4.464-22.883-9.764zm10.018 13.235c6.505 2.116 14.59 3.657 23.625 4.461L43.45 89.25c-6.061-1.44-10.589-3.566-12.108-4.332L16.713 65.806zm60.84 32.537c-3.531 1.651-12.331 5.212-22.557 5.212-10.177 0-19.014-3.567-22.557-5.217v-5.85c4.915 2.002 13.146 4.622 22.557 4.622 9.411 0 17.642-2.62 22.557-4.623v5.856zm1.095-13.422c-2.378 1.205-12.106 5.745-23.652 5.745-1.649 0-3.263-.094-4.825-.258l-3.229-19.694c2.628.124 5.317.188 8.054.188 14.925 0 28.422-1.888 38.283-5.095L78.649 84.92zm24.141-31.54c-2.567 3.34-10.561 6.809-22.375 8.955 2.34-4.235 3.584-9.015 3.584-13.992V41.54c14.164 3.11 19.549 7.688 19.549 10.028 0 .434-.153 1.028-.758 1.814z" fill="#FFC59E"/></svg>