<svg width="112" height="112" fill="none" xmlns="http://www.w3.org/2000/svg"><path d="M78.27 60.253v43.48c-10.395-1.774-18.333-10.848-18.333-21.74 0-10.892 7.938-19.966 18.334-21.74zM14.411 97.589l-.353.353.353-.353c-8.62-8.62-8.62-22.571 0-31.192l-.353-.353.353.353 23.165-23.164 20.93 20.93a29.351 29.351 0 00-6.014 17.83c0 2.658.355 5.236 1.018 7.689l-7.907 7.907c-8.62 8.619-22.571 8.62-31.192 0zM97.59 14.41l.353-.353-.353.353c8.619 8.62 8.621 22.571 0 31.192l-7.907 7.907a29.433 29.433 0 00-7.69-1.018A29.358 29.358 0 0063.72 58.85L42.84 37.969 66.397 14.41c8.62-8.62 22.571-8.62 31.192 0zm-46.722 88.442l5.78-5.78c5.152 8.627 14.584 14.42 25.346 14.42 16.267 0 29.5-13.233 29.5-29.5 0-10.762-5.793-20.194-14.42-25.346l5.78-5.78c11.529-11.529 11.53-30.19 0-41.72-11.529-11.529-30.19-11.53-41.72 0l-47.73 47.73-4.256 4.256c-11.529 11.529-11.53 30.19 0 41.72 11.529 11.529 30.19 11.53 41.72 0zm34.848.88v-43.48C96.11 62.027 104.05 71.1 104.05 81.993c0 10.892-7.939 19.966-18.334 21.74z" fill="#FFC59E" stroke="#FFC59E"/></svg>