<svg width="132" height="92" fill="none" xmlns="http://www.w3.org/2000/svg"><path d="M121.167 0h-15.77c-4.357 0-8.119 2.587-9.837 6.304-2.798-.652-5.806-.981-8.98-.981-3.172 0-6.181.33-8.98.98C75.883 2.588 72.12 0 67.765 0h-15.77C46.02 0 41.16 4.86 41.16 10.832c0 2.198.663 4.452 1.82 6.187l6.846 10.27c1.097 1.644 2.663 2.944 4.467 3.778-3.352 13.428-2.31 36.088-2.31 35.643 0 10.272 8.357 18.629 18.629 18.629 1.681 0 3.31-.225 4.861-.644 2.46 3.751 6.669 6.144 11.106 6.144 4.438 0 8.646-2.393 11.107-6.144 1.55.42 3.18.644 4.861.644 10.272 0 18.629-8.357 18.629-18.63 0-13.558.646-24.814-2.282-35.655 1.792-.835 3.348-2.129 4.438-3.765l6.847-10.27c1.157-1.735 1.82-3.99 1.82-6.186C132 4.86 127.14 0 121.167 0zm-66.91 24.337l-6.848-10.271c-.57-.856-.925-2.095-.925-3.234a5.516 5.516 0 015.51-5.51h15.77a5.516 5.516 0 015.51 5.51c0 1.139-.355 2.378-.925 3.234L65.5 24.337a5.498 5.498 0 01-4.584 2.453h-1.899c-1.9 0-3.768-.963-4.762-2.453zm32.324 61.18c-2.35 0-4.602-1.148-6.119-3.002a18.777 18.777 0 006.118-6.218 18.777 18.777 0 006.119 6.218c-1.517 1.854-3.768 3.001-6.118 3.001zm-2.493-25.063a2.666 2.666 0 012.493-1.728c1.139 0 2.113.72 2.492 1.728l-2.492 2.492-2.493-2.492zm31.767 6.256c0 7.337-5.97 13.306-13.307 13.306-6.98 0-12.722-5.403-13.264-12.246l4.5-4.501c.5-.5.78-1.176.78-1.882 0-4.402-3.581-7.984-7.983-7.984-4.403 0-7.984 3.582-7.984 7.984 0 .706.28 1.383.78 1.882l4.5 4.501c-.542 6.844-6.284 12.246-13.264 12.246-7.337 0-13.307-5.97-13.307-13.306 0-.682-.992-22.038 2.214-34.597h1.397c3.63 0 7-1.803 9.013-4.824l6.847-10.27c1.032-1.548 1.67-3.51 1.795-5.475 2.467-.596 5.15-.899 8.008-.899 2.858 0 5.542.303 8.009.899.125 1.965.763 3.927 1.795 5.475l6.847 10.27a10.862 10.862 0 001.634 1.923 13.226 13.226 0 00-7.64-2.422c-7.337 0-13.306 5.97-13.306 13.307 0 7.337 5.97 13.306 13.307 13.306 7.337 0 13.306-5.97 13.306-13.306 0-3.9-1.687-7.414-4.369-9.85a10.813 10.813 0 006.081 1.866h1.423c2.823 10.125 2.188 20.722 2.188 34.597zM105.21 40.097c0 4.402-3.582 7.984-7.984 7.984-4.403 0-7.984-3.582-7.984-7.984 0-4.403 3.581-7.984 7.984-7.984 4.402 0 7.984 3.581 7.984 7.984zm20.542-26.03l-6.847 10.27c-.994 1.49-2.863 2.453-4.762 2.453h-1.899a5.497 5.497 0 01-4.584-2.453h-.001l-6.847-10.27c-.57-.857-.925-2.096-.925-3.235a5.516 5.516 0 015.51-5.51h15.771a5.516 5.516 0 015.509 5.51c0 1.139-.354 2.378-.925 3.234z" fill="#FFC59E"/><path d="M75.936 42.758a2.661 2.661 0 100-5.322 2.661 2.661 0 000 5.322zm21.29 0a2.661 2.661 0 100-5.322 2.661 2.661 0 000 5.322z" fill="#FFC59E"/><path d="M43.077 43.065h-8.294a5.704 5.704 0 00-5.173 3.315 20.849 20.849 0 00-4.723-.516 20.85 20.85 0 00-4.723.516 5.703 5.703 0 00-5.173-3.316H6.697A5.704 5.704 0 001 48.762c0 1.156.349 2.342.957 3.254l3.6 5.401a5.683 5.683 0 002.35 1.987c-1.763 7.062-1.215 18.98-1.215 18.746 0 5.402 4.395 9.797 9.797 9.797.884 0 1.742-.118 2.557-.339 1.294 1.974 3.507 3.232 5.841 3.232s4.547-1.258 5.841-3.232c.816.221 1.673.34 2.557.34 5.402 0 9.797-4.396 9.797-9.798 0-7.131.34-13.05-1.2-18.753a5.68 5.68 0 002.334-1.98l3.601-5.401c.608-.912.957-2.098.957-3.254a5.704 5.704 0 00-5.697-5.697zM7.887 55.864l-3.601-5.402c-.3-.45-.487-1.102-.487-1.7 0-1.598 1.3-2.898 2.898-2.898h8.294c1.598 0 2.898 1.3 2.898 2.898 0 .598-.187 1.25-.487 1.7l-3.6 5.402a2.892 2.892 0 01-2.412 1.29h-.998c-1 0-1.982-.506-2.505-1.29zm17 32.175c-1.236 0-2.42-.603-3.218-1.578a9.876 9.876 0 003.218-3.27 9.876 9.876 0 003.218 3.27c-.798.975-1.982 1.578-3.218 1.578zm-1.31-13.18c.199-.53.711-.91 1.31-.91.6 0 1.112.38 1.31.91l-1.31 1.31-1.31-1.31zm16.706 3.29a7.006 7.006 0 01-6.998 6.998c-3.671 0-6.691-2.842-6.976-6.44l2.367-2.368a1.4 1.4 0 00.41-.99 4.204 4.204 0 00-4.199-4.199 4.204 4.204 0 00-4.199 4.2c0 .37.148.727.41.989l2.367 2.367c-.285 3.6-3.305 6.44-6.976 6.44a7.006 7.006 0 01-6.998-6.997c0-.359-.522-11.59 1.165-18.196h.734c1.91 0 3.681-.948 4.74-2.537l3.601-5.401c.543-.814.878-1.846.944-2.88 1.297-.313 2.71-.472 4.212-.472 1.503 0 2.915.16 4.212.473.066 1.033.401 2.065.944 2.879l3.6 5.401c.25.375.54.713.86 1.012a6.956 6.956 0 00-4.017-1.274 7.006 7.006 0 00-6.998 6.998 7.006 7.006 0 006.998 6.998 7.006 7.006 0 006.998-6.998 6.98 6.98 0 00-2.298-5.18c.93.63 2.038.981 3.198.981h.749c1.484 5.325 1.15 10.898 1.15 18.196zm-5.599-13.997a4.204 4.204 0 01-4.198 4.2 4.204 4.204 0 01-4.2-4.2 4.204 4.204 0 014.2-4.199 4.204 4.204 0 014.198 4.2zm10.804-13.69l-3.6 5.402c-.523.784-1.506 1.29-2.505 1.29h-.999a2.892 2.892 0 01-2.411-1.29l-3.601-5.402c-.3-.45-.487-1.102-.487-1.7 0-1.598 1.3-2.898 2.898-2.898h8.294c1.598 0 2.898 1.3 2.898 2.898 0 .598-.187 1.25-.487 1.7z" fill="#FFC59E" stroke="#FFC59E"/><path d="M19.288 65.552a1.4 1.4 0 100-2.799 1.4 1.4 0 000 2.8zm11.198 0a1.4 1.4 0 100-2.799 1.4 1.4 0 000 2.8z" fill="#FFC59E" stroke="#FFC59E"/></svg>