<svg width="97" height="110" fill="none" xmlns="http://www.w3.org/2000/svg"><path d="M48.34 32.227a3.223 3.223 0 100-6.446 3.223 3.223 0 000 6.446z" fill="#FFC59E"/><path d="M72.15 58.558a29.202 29.202 0 005.194-16.663V28.998C77.34 13.008 64.33 0 48.34 0 32.347 0 19.336 13.011 19.336 29.004v12.89a29.203 29.203 0 005.193 16.664C10.502 60.702 0 72.925 0 87.227v19.55A3.223 3.223 0 003.223 110h90.234a3.223 3.223 0 003.223-3.223v-19.55c0-14.254-10.456-26.518-24.53-28.669zM48.34 6.445c11.345 0 20.759 8.418 22.327 19.336H64.13c-1.497-7.346-8.008-12.89-15.79-12.89-7.78 0-14.291 5.544-15.788 12.89h-6.539C27.581 14.864 36.995 6.445 48.34 6.445zm9.668 22.559c0 5.33-4.337 9.668-9.668 9.668-5.331 0-9.668-4.337-9.668-9.668 0-5.331 4.337-9.668 9.668-9.668 5.33 0 9.668 4.337 9.668 9.668zM25.78 32.227h6.77c1.497 7.346 8.007 12.89 15.789 12.89 7.781 0 14.292-5.544 15.789-12.89h6.77v9.668c0 12.557-10.12 22.773-22.56 22.773-5.577 0-10.688-2.055-14.63-5.454a3.19 3.19 0 00-.2-.175 22.819 22.819 0 01-7.728-17.145v-9.667zm-3.22 51.777a3.226 3.226 0 013.222 3.223 3.226 3.226 0 01-3.222 3.222 3.226 3.226 0 01-3.223-3.222 3.226 3.226 0 013.223-3.223zm67.675 19.551H6.445V87.227c0-8.712 5.049-16.666 12.89-20.399v11.285c-3.75 1.33-6.444 4.912-6.444 9.114 0 5.33 4.337 9.667 9.668 9.667 5.33 0 9.668-4.337 9.668-9.667 0-4.202-2.695-7.784-6.446-9.114V64.89a23.06 23.06 0 014.452-.189c4.966 4.01 11.263 6.411 18.107 6.411 5.958 0 11.501-1.82 16.113-4.936v5.26c-7.346 1.498-12.89 8.008-12.89 15.79v3.222a3.223 3.223 0 000 6.445h6.445a3.223 3.223 0 000-6.445v-3.222c0-5.331 4.337-9.668 9.668-9.668 5.33 0 9.668 4.337 9.668 9.668v3.222a3.223 3.223 0 000 6.445h6.445a3.223 3.223 0 000-6.445v-3.222c0-7.782-5.545-14.292-12.89-15.79V64.89c11.126 1.57 19.335 11.214 19.335 22.336v16.328z" fill="#FFC59E"/></svg>