<svg width="90" height="90" fill="none" xmlns="http://www.w3.org/2000/svg"><path fill-rule="evenodd" clip-rule="evenodd" d="M45 0C20.147 0 0 20.147 0 45s20.147 45 45 45 45-20.147 45-45S69.853 0 45 0zM13.792 55.034c.622-.176.248-1.042-.711-.511-.664.367-1.16.996-1.07 1.764.296 2.56 2.452 2.563 4.317 2.566.14 0 .28 0 .416.002a6.493 6.493 0 00-.08.838c-.028.524-.06 1.106-.235 1.54-.314.781-.854 1.177-1.095 1.353a2.89 2.89 0 00-.077.057c-.138.11-.46 1.114-.636 1.663-.049.154-.087.272-.106.326-.089.244.15 1.346.279 1.527.13.182.722.252.804.175.068-.064.074-.075.031-.161l-.031-.063a1.703 1.703 0 01-.19-.585c-.042-.28.203-1.214.278-1.417.044-.119.488-.272.967-.437.335-.116.687-.238.934-.358.32-.157.63-.361.85-.507.19-.127.315-.21.321-.177.014.07-.04 1.2-.081 1.451-.041.251.408.67.844 1.047.2.173.312.355.405.508.11.18.195.32.372.357.327.07.804 0 .994-.042a.332.332 0 01.186.02c.081.027.143.047.21-.09.108-.223-.082-.404-.246-.516a2.311 2.311 0 00-.222-.123c-.186-.096-.416-.215-.554-.365a11.844 11.844 0 00-.08-.086c-.204-.22-.472-.507-.424-.654.02-.06.099-.165.197-.296.176-.233.414-.548.484-.834.109-.447.163-.754.163-.754s.75.056 1.405.224c.654.167 1.907.153 1.907.153s-.19.335-.327.586l-.035.065c-.15.27-.416.754-.278 1.023.15.294.803 1.48 1.158 1.619.26.103.484.077.665.056.065-.007.125-.014.18-.014.204 0 .326-.056.217-.251a.483.483 0 00-.305-.245l-.063-.02a1.844 1.844 0 00-.06-.02c-.105-.03-.214-.063-.294-.204-.095-.167-.177-.6-.177-.865 0-.182.33-.537.633-.863.137-.148.268-.29.362-.407.3-.376.395-.6.395-.6s.095.81.204 1.103c.11.293.817.879 1.267 1.2.276.197.408.42.5.576.059.098.101.17.154.191.136.056.572.147.75.09.176-.055.32-.166.156-.348-.108-.12-.244-.208-.362-.285a2.035 2.035 0 01-.163-.113c-.129-.104-.98-1.332-1.062-1.862-.082-.53-.11-.851-.04-1.172.067-.321.122-.405.122-.405l.042-.042c.122-.12.47-.46.632-.586.198-.154 1.247-.321 1.471-.188.046.026.084.053.119.077.135.093.212.145.44.034.236-.115.443-.34.547-.454l.052-.055a.263.263 0 01.067-.053.253.253 0 00.05-.034c.057-.05.067-.06.054-.119a1.804 1.804 0 00-.096-.189c-.113-.21-.289-.537-.316-.697-.013-.07-.016-.118-.02-.157-.006-.09-.009-.126-.107-.265-.083-.118-.314-.318-.485-.466-.116-.1-.205-.176-.2-.186l.003-.004c.022-.039.151-.268.151-.349 0-.083-.528.056-.528.056s.089-.118.068-.286c-.02-.167-.06-.261-.088-.265-.027-.003-.399.258-.511.39-.113.133-.16.186-.177.19a.848.848 0 00-.032.01c-.173.063-.994.362-1.515.355-.46-.005-1.142-.112-1.69-.197a24.366 24.366 0 00-.394-.06c-.153-.023-.418-.08-.75-.153-.912-.198-2.33-.507-3.318-.496-1.349.014-2.658.067-2.792.126-.672.17-3.381.525-4.368.265-1.375-.362-1.807-2.242-.432-2.632zm53.455 5.843L49.965 19h-8.88L26.163 55.369l.194-.133.113-.078c.118-.081.33-.219.58-.38.628-.41 1.495-.973 1.695-1.173.28-.28.827-1.223 1.046-1.975.22-.751.78-1.795.947-2.071l.018-.03c.163-.271.36-.6.37-.811.005-.138.105-.347.22-.589a7.71 7.71 0 00.205-.454c.084-.212.146-.495.197-.727.05-.235.09-.418.131-.423.082-.01.293.45.402.722.109.271.37.858.414.946.04.081.215.126.367.165l.04.01c.077.02.22.093.378.172.168.085.35.177.485.222.26.087.323.146.438.26.05.05.093.114.139.182.057.085.119.178.208.261.16.15.554.232.88.297.173.034.386.116.592.195.184.07.36.139.5.17.293.065.259.162.2.318-.058.156-.234.44-.375.601a1.904 1.904 0 00-.092.118 1.264 1.264 0 01-.467.412c-.31.17-.565.178-.804.184a7.288 7.288 0 00-.107.004 3.555 3.555 0 00-.335.04c-.197.031-.41.064-.607.044a1.892 1.892 0 00-.483.011 2.993 2.993 0 01-.178.018c-.164.012-.192.052-.228.105a.394.394 0 01-.047.059c-.08.082-.253.517-.291 1.158-.012.205-.033.447-.053.694-.044.526-.09 1.073-.065 1.332.023.249.136.592.27.996.07.214.146.445.217.687.156.532.13.977.11 1.323a4.242 4.242 0 00-.012.302c.003.344-.168.804-.302 1.161l-.03.083-.203.526c-.43 1.107-1.411 3.637-1.905 5.063l8.826-.002v-1.43c-3.545-.132-5.317-1.285-5.317-3.456 0-.753.155-1.529.465-2.327l2.393-6.115h15.587l3.191 7.678c.177.42.266.875.266 1.362 0 1.773-2.016 2.726-6.049 2.858v1.43H72v-1.43h-.266c-2.15 0-3.645-1.019-4.487-3.057zm-28.915-11.5l6.514-16.817 6.947 16.817h-13.46z" fill="#fff"/></svg>