<svg width="127" height="110" fill="none" xmlns="http://www.w3.org/2000/svg"><path d="M92.735 0C82.294 0 73.22 4.97 66.493 14.372a48.075 48.075 0 00-3.354 5.438 48.104 48.104 0 00-3.355-5.438C53.058 4.97 43.984 0 33.542 0 14.206 0 0 16.094 0 35.827c0 21.994 17.87 37.045 44.92 59.829 5.038 4.243 10.248 8.632 15.796 13.44a3.69 3.69 0 002.423.904 3.69 3.69 0 002.423-.904c5.548-4.808 10.758-9.197 15.796-13.44 27.05-22.784 44.92-37.835 44.92-59.829C126.278 16.1 112.078 0 92.735 0zM76.592 89.997c-4.32 3.638-8.766 7.383-13.453 11.416-4.687-4.033-9.133-7.778-13.453-11.416-14.54-12.247-26.259-22.12-33.641-31.79h17.497a3.7 3.7 0 003.31-2.046l4.09-8.18L52.43 70.959a3.7 3.7 0 006.618 0l4.09-8.18 4.09 8.18a3.699 3.699 0 006.618 0l11.49-22.978 4.09 8.18c.626 1.253 1.907 2.02 3.308 2.02h17.498c-7.382 9.672-19.102 19.57-33.641 31.816zm18.43-39.19l-6.377-12.753a3.7 3.7 0 00-6.618 0L70.538 61.032l-4.09-8.18a3.7 3.7 0 00-6.618 0l-4.09 8.18-11.49-22.978a3.7 3.7 0 00-6.617 0l-6.377 12.753h-19.99C8.751 45.99 7.4 41.084 7.4 35.827 7.4 19.62 18.64 7.4 33.542 7.4c8.003 0 14.766 3.738 20.103 11.109 4.201 5.803 5.91 11.763 5.93 11.836a3.7 3.7 0 007.13-.007c.063-.23 6.576-22.938 26.03-22.938 14.904 0 26.144 12.221 26.144 28.428 0 5.257-1.352 10.162-3.868 14.98h-19.99z" fill="#FFC59E"/></svg>