<svg width="90" height="91" fill="none" xmlns="http://www.w3.org/2000/svg"><path d="M56.386 35.9c7.897 0 12.756-11.4 12.756-18.6 0-6-3.037-13.2-9.111-13.2-7.896 0-12.756 11.4-12.756 18.6 0 6 3.037 13.2 9.111 13.2zm-23.081 0c6.074 0 9.111-7.2 9.111-13.2 0-7.8-4.86-19.2-12.755-19.2-6.075 0-9.112 7.2-9.112 13.2-.607 7.8 4.252 19.2 12.756 19.2zm44.948-6c-7.896 0-13.363 10.8-13.363 18.6 0 5.4 2.43 10.8 7.897 10.8 7.896 0 13.362-10.8 13.362-18.6 0-5.4-3.037-10.8-7.896-10.8zM25.41 48.5c0-7.8-6.074-18.6-13.363-18.6-5.467 0-7.897 5.4-7.897 10.8 0 7.8 6.074 18.6 13.363 18.6 5.467 0 7.897-5.4 7.897-10.8zm19.437-1.2c-12.148 0-28.548 19.2-28.548 32.4 0 6 4.251 7.8 9.11 7.8 7.29 0 12.756-4.8 19.438-4.8 6.074 0 11.54 4.8 18.222 4.8 4.86 0 10.326-1.2 10.326-7.8 0-13.2-16.4-32.4-28.548-32.4z" stroke="#FFC59E" stroke-width="7" stroke-linecap="round" stroke-linejoin="round"/></svg>