<svg width="110" height="102" fill="none" xmlns="http://www.w3.org/2000/svg"><path d="M110 66.804a3.29 3.29 0 00-3.289-3.289h-1.027l.451-.452a3.289 3.289 0 10-4.651-4.651l-5.104 5.103h-.151a13.258 13.258 0 01-10.11-4.669l-4.493-5.275c3.091-4.208 5.55-9.172 7.352-14.856 5.166-1.83 8.828-4.837 10.894-8.953 3.659-7.291 4.953-24.119-3.989-28.64-3.99-2.018-9.154-1.298-14.542 2.026-4.261 2.628-8.173 6.62-10.208 10.42-3.887 7.252-2.363 13.647-1.382 16.347-1.078 3.41-2.49 6.352-4.224 8.834l-4.032-3.434a13.258 13.258 0 01-4.668-10.109v-.151l5.103-5.103a3.29 3.29 0 00-4.652-4.652l-.452.451v-1.027a3.29 3.29 0 00-6.578 0v1.027l-.452-.451a3.29 3.29 0 00-4.651 4.652l5.103 5.103v.151a19.828 19.828 0 006.981 15.117l3.815 3.25c-5.412 4.325-12.734 5.89-21.921 4.65a38.342 38.342 0 00-2.29-.237l-5.106-5.995a19.828 19.828 0 00-15.117-6.98h-.152l-5.103-5.104a3.29 3.29 0 00-4.652 4.652l.452.452H6.128a3.29 3.29 0 000 6.578h1.027l-.452.452a3.29 3.29 0 004.652 4.652l5.104-5.104h.151c3.897 0 7.582 1.702 10.108 4.669l1.725 2.024a36.27 36.27 0 00-6.221 1.48c-5.519 1.845-10.496 5.051-14.394 9.27-6.721 7.272-9.183 16.342-7.119 26.23 1.52 7.281 4.986 12.44 5.133 12.656a3.29 3.29 0 005.99-1.48c.017-.15 1.8-15.108 11.008-23.571 1.173-1.078 5.606-4.513 13.424-3.458a75.85 75.85 0 007.94.661l4.647 6.1a13.258 13.258 0 012.413 10.87l-.033.149-6.071 3.901a3.29 3.29 0 103.556 5.535l.537-.345-.218 1.003a3.29 3.29 0 006.428 1.4l.219-1.004.345.537a3.286 3.286 0 004.545.99 3.29 3.29 0 00.99-4.546l-3.902-6.072.032-.148a19.828 19.828 0 00-3.607-16.256l-1.827-2.397c8.479-.89 15.764-3.678 21.761-8.349a38.644 38.644 0 003.25-2.839l3.844 4.514a19.827 19.827 0 0015.117 6.98h.151l5.103 5.104a3.281 3.281 0 002.327.964 3.289 3.289 0 002.325-5.615l-.451-.452h1.027a3.289 3.289 0 003.288-3.29zm-63.79-3.273c-2.87 0-5.894-.214-9.066-.642-10.364-1.398-16.57 3.125-18.756 5.134-5.628 5.174-8.904 12.115-10.772 17.755-1.679-6.149-1.97-14.694 5.043-22.282 5.421-5.866 12.977-9.05 21.198-9.05 1.444 0 2.909.098 4.386.297 12.744 1.72 22.966-1.39 29.958-8.881a3.35 3.35 0 00.273-.282c.026-.032.048-.065.073-.096 3.472-3.852 6.121-8.814 7.853-14.833a3.29 3.29 0 00-.247-2.436c-.027-.051-2.579-5.276.779-11.54C80.025 10.9 88.814 4.918 92.915 6.991c1.734.877 2.933 3.991 3.129 8.126.197 4.156-.628 8.856-2.052 11.693-2.075 4.135-6.592 5.53-8.077 5.99-.789.243-2.257.697-2.76 2.443-5.412 18.802-17.82 28.288-36.946 28.287z" fill="#FFC59E"/></svg>