<svg width="110" height="97" fill="none" xmlns="http://www.w3.org/2000/svg"><path d="M54.785 64.453c-.772 0-1.531.058-2.275.164L45.536 49.2 57.7 21.893c3.904-7.898.758-17.553-7.24-21.553a3.223 3.223 0 00-4.377 1.555L35.11 26.155 24.135 1.895A3.223 3.223 0 0019.758.34C11.754 4.342 8.615 14 12.518 21.894L24.696 49.18l-6.945 15.356a16.27 16.27 0 00-1.638-.083C7.228 64.453 0 71.682 0 80.567 0 89.45 7.228 96.68 16.113 96.68s16.114-7.229 16.114-16.114c0-.456-.024-.907-.062-1.355l2.965-6.653 3.544 7.94-.002.069c0 8.884 7.228 16.113 16.113 16.113s16.113-7.229 16.113-16.114c0-8.884-7.228-16.113-16.113-16.113zM18.376 19.206a3.305 3.305 0 00-.06-.128c-1.892-3.784-1.048-8.117 1.576-10.926l11.682 25.823-3.325 7.351-9.873-22.12zm-2.263 71.028c-5.33 0-9.668-4.337-9.668-9.667 0-5.331 4.337-9.668 9.668-9.668 5.331 0 9.668 4.337 9.668 9.668 0 5.33-4.337 9.668-9.668 9.668zM28.88 70.751a16.233 16.233 0 00-4.938-4.261L50.328 8.153c2.642 2.828 3.456 7.165 1.576 10.925a3.197 3.197 0 00-.062.13L28.88 70.75zm12.743.54l-2.966-6.647 3.37-7.565 4.396 9.72a16.238 16.238 0 00-4.8 4.491zm13.163 18.944c-5.33 0-9.668-4.338-9.668-9.668 0-5.331 4.337-9.668 9.668-9.668 5.331 0 9.668 4.337 9.668 9.668 0 5.33-4.337 9.668-9.668 9.668zM100.332 0H80.996a3.223 3.223 0 000 6.445h9.668v6.446h-9.668a3.223 3.223 0 000 6.445h9.668v6.445h-9.668a3.223 3.223 0 000 6.446h9.668v6.445h-9.668a3.223 3.223 0 000 6.445h9.668v6.446h-9.668a3.223 3.223 0 000 6.445h9.668v6.445h-9.668a3.223 3.223 0 000 6.445h9.668v6.446h-9.668a3.223 3.223 0 100 6.445h9.668v6.445h-9.668a3.223 3.223 0 000 6.446h19.336c5.331 0 9.668-4.337 9.668-9.668V9.668C110 4.338 105.663 0 100.332 0zm3.223 87.012a3.227 3.227 0 01-3.223 3.222h-3.223V6.445h3.223a3.227 3.227 0 013.223 3.223v77.344z" fill="#FFC59E"/></svg>