<svg width="110" height="110" fill="none" xmlns="http://www.w3.org/2000/svg"><path d="M110 22.773V3.223A3.223 3.223 0 00106.777 0C94.815 0 82.578 3.456 72.056 9.77a3.18 3.18 0 00-.24-.103A48.173 48.173 0 0055 6.66a48.335 48.335 0 00-17.085 3.096C27.403 3.456 15.151 0 3.223 0A3.223 3.223 0 000 3.223v19.55c0 6.792 3.305 13.401 8.857 17.753A48.48 48.48 0 006.66 55c0 12.52 4.888 24.725 13.446 33.666 2.17 9.053 10.05 14.889 18.78 14.889 1.03 0 2.046-.084 3.043-.24C44.93 107.49 49.74 110 55 110s10.071-2.51 13.07-6.685c.998.156 2.014.24 3.043.24 8.803 0 16.595-5.882 18.775-14.883C98.45 79.73 103.34 67.523 103.34 55c0-3.539-.381-7.03-1.132-10.44C108.365 39.725 110 28.22 110 22.774zm-103.555 0V6.538c8.315.474 16.702 2.765 24.313 6.621-8.171 4.752-15.106 12.027-19.4 20.998-3.107-3.066-4.913-7.187-4.913-11.384zM55 103.555a9.624 9.624 0 01-6.533-2.537A19.256 19.256 0 0055 94.894a19.259 19.259 0 006.533 6.124A9.624 9.624 0 0155 103.555zm-3.018-30.35A3.228 3.228 0 0155 71.114c1.38 0 2.56.871 3.018 2.093L55 76.224l-3.018-3.018zm31.643 13.96c-1.486 6.158-6.766 9.944-12.512 9.944-7.9 0-13.971-6.996-12.733-15.15l5.344-5.344a3.223 3.223 0 00.944-2.28c0-5.33-4.337-9.667-9.668-9.667-5.33 0-9.668 4.337-9.668 9.668 0 .855.34 1.674.944 2.279l5.344 5.344c1.242 8.178-4.857 15.15-12.733 15.15-7.217 0-12.89-5.83-12.89-13.105 0-3.443 1.34-6.68 3.774-9.115a3.222 3.222 0 10-4.557-4.558 19.227 19.227 0 00-4.912 8.322A42.666 42.666 0 0113.105 55c0-13.437 6.36-25.415 16.227-33.087L83.854 85.98a3.23 3.23 0 00-.23 1.187zm12.61-24.75L82.746 46.473a3.223 3.223 0 00-4.92 4.163l16.34 19.312a42.281 42.281 0 01-6.125 11.007l-53.29-62.62a41.595 41.595 0 0112.009-4.414l31.066 36.715a3.223 3.223 0 004.92-4.163L54.518 13.112a41.69 41.69 0 0114.406 2.362l25.602 25.602A41.769 41.769 0 0196.894 55a42.25 42.25 0 01-.659 7.415zm3.728-24.937a3.21 3.21 0 00-.372-.453L76.948 14.383c8.201-4.6 17.433-7.324 26.607-7.845v16.236c0 4.907-1.336 11.14-3.593 14.705z" fill="#FFC59E"/><path d="M35.664 45.332c-5.33 0-9.668 4.337-9.668 9.668 0 5.33 4.337 9.668 9.668 9.668 5.331 0 9.668-4.337 9.668-9.668 0-5.33-4.337-9.668-9.668-9.668zm0 12.89A3.226 3.226 0 0132.441 55a3.226 3.226 0 013.223-3.223A3.226 3.226 0 0138.887 55a3.226 3.226 0 01-3.223 3.223z" fill="#FFC59E"/></svg>