<svg width="110" height="110" fill="none" xmlns="http://www.w3.org/2000/svg"><path d="M103.88 19.333l-.006-.006a.023.023 0 01-.005-.005l-.01-.01-.004-.004-.005-.005a.03.03 0 01-.006-.006l-.002-.001a19.21 19.21 0 00-8.692-4.987 18.971 18.971 0 00-4.95-8.656c-7.538-7.537-19.801-7.537-27.339 0-6.89 6.89-7.38 17.465-2.09 24.873L49.944 41.353a3.221 3.221 0 00-.881 2.91l2.278 11.391a3.222 3.222 0 002.527 2.527L65.26 60.46a3.222 3.222 0 002.91-.882l10.827-10.827c7.482 5.344 18.076 4.731 24.872-2.09 7.534-7.533 7.537-19.79.011-27.328zm-4.567 22.771l-.091.09-.004.004c-5.584 5.474-14.024 4.28-18.033.003l-.098-.097-.007-.007a3.212 3.212 0 00-2.327-.936c-.863.015-1.66.382-2.181.903l-11.74 11.739-7.594-1.52-1.519-7.593 11.699-11.698a3.222 3.222 0 000-4.557c-5.037-5.037-5.037-13.188 0-18.226 5.024-5.024 13.2-5.024 18.225 0a12.46 12.46 0 012.494 3.57 19.243 19.243 0 00-11.606 5.544 3.222 3.222 0 104.556 4.556c5.28-5.28 13.528-4.685 18.214-.012l.002.002.004.003.006.007c5.024 5.024 5.024 13.2 0 18.225zM39.03 34.518l-4.556-4.557a3.222 3.222 0 10-4.557 4.557l4.557 4.556a3.222 3.222 0 104.556-4.556zm-2.278 8.047h-9.113a3.222 3.222 0 100 6.443h9.113a3.222 3.222 0 100-6.444zm8.989-18.103a3.222 3.222 0 00-3.221 3.222v9.113a3.222 3.222 0 006.443 0v-9.113a3.222 3.222 0 00-3.222-3.222zm34.297 51.064l-4.556-4.557a3.222 3.222 0 10-4.557 4.557l4.557 4.556a3.222 3.222 0 104.556-4.556zM64 70.026a3.222 3.222 0 00-3.223 3.222v9.113a3.222 3.222 0 006.444 0v-9.113a3.222 3.222 0 00-3.222-3.222zm18.316-9.205h-9.113a3.222 3.222 0 000 6.444h9.113a3.222 3.222 0 000-6.444z" fill="#FFC59E"/><path d="M60.341 65.484a3.224 3.224 0 00-2.453-2.23l-9.285-1.858-1.857-9.285a3.221 3.221 0 00-5.43-1.653L30.53 61.178c-7.545-5.375-18.114-4.68-24.878 2.083-7.537 7.538-7.537 19.801 0 27.339 2.4 2.4 5.361 4.087 8.662 4.951 3.796 14.422 21.85 19.215 32.346 8.718 6.777-6.777 7.481-17.313 2.096-24.865l10.77-10.706a3.22 3.22 0 00.814-3.214zm-18.23 11.44l-.004.004-.002.003a3.226 3.226 0 000 4.556c5.044 5.045 5.025 13.2 0 18.226-7.487 7.487-20.345 3.264-21.818-7.33-.616-4.423.927-8.23 3.592-10.896a3.222 3.222 0 10-4.557-4.556 19.236 19.236 0 00-5.54 11.605 12.456 12.456 0 01-3.573-2.492c-5.024-5.025-5.024-13.201 0-18.226 5.025-5.025 13.201-5.025 18.226 0a3.222 3.222 0 004.55.007l8.619-8.568 1.102 5.51a3.222 3.222 0 002.527 2.527l5.467 1.093-8.589 8.537z" fill="#FFC59E"/></svg>