<svg width="100" height="110" fill="none" xmlns="http://www.w3.org/2000/svg"><path d="M96.047 1.781a3.223 3.223 0 00-5.159-.84c-35.642 35.563-24.78 24.717-37.656 37.594L6.385 78.175c-8.053 6.813-8.563 19.082-1.104 26.54 7.484 7.484 19.741 6.933 26.541-1.103l35.895-42.421c2.617-3.094 2.95-7.466 1.093-10.89l4.835-4.834 2.279 2.278a3.222 3.222 0 004.55.008l9.672-9.609a31.462 31.462 0 005.9-36.363zM26.902 99.448c-4.394 5.193-12.258 5.514-17.064.71-4.81-4.812-4.477-12.675.71-17.064l10.123-8.565 14.796 14.796-8.565 10.123zm12.743-15.06L25.608 70.35l4.938-4.177L43.823 79.45l-4.178 4.937zm8.356-9.875L35.483 61.996l4.937-4.178 11.758 11.758-4.177 4.937zm14.795-17.486l-6.44 7.612L45.358 53.64l9.875-8.355 7.382 7.382a3.241 3.241 0 01.181 4.36zm1.734-11.56l-4.558-4.558 4.558-4.558 4.558 4.558-4.558 4.558zm21.066-11.888l-7.386 7.337-9.12-9.12L91.963 8.974a25.017 25.017 0 01-6.367 24.605z" fill="#FFC59E"/></svg>