<svg width="110" height="110" fill="none" xmlns="http://www.w3.org/2000/svg"><path d="M93.887 32.441c-8.885 0-16.114 7.229-16.114 16.114 0 7.781 5.545 14.291 12.891 15.789v32.765a6.453 6.453 0 01-6.445 6.446 6.453 6.453 0 01-6.446-6.446V84.22c0-7.108-5.782-12.89-12.89-12.89-7.108 0-12.89 5.782-12.89 12.89v12.89a6.453 6.453 0 01-6.446 6.446c-3.61 0-6.66-2.952-6.66-6.446V70.943c3.892-.932 7.403-3.497 9.437-7.056 0 0 20.49-36.067 21.238-37.381a13.431 13.431 0 001.766-6.652c0-7.22-5.736-13.122-12.89-13.396V3.223a3.223 3.223 0 00-6.446 0v12.89a3.223 3.223 0 006.446 0v-3.201c3.598.266 6.445 3.277 6.445 6.942a6.98 6.98 0 01-.921 3.461l-12.51 22.017H19.876L7.363 23.308a6.974 6.974 0 01-.918-3.454c0-3.665 2.847-6.676 6.446-6.942v3.201a3.223 3.223 0 006.445 0V3.223a3.223 3.223 0 00-6.445 0v3.235C5.737 6.732 0 12.634 0 19.854c0 2.329.61 4.63 1.763 6.645l21.245 37.395c2.031 3.554 5.541 6.118 9.433 7.049v26.166c0 7.167 6.017 12.891 13.106 12.891 7.108 0 12.89-5.783 12.89-12.89V84.218a6.453 6.453 0 016.446-6.446 6.453 6.453 0 016.445 6.446v12.89c0 7.108 5.783 12.891 12.89 12.891 7.109 0 12.891-5.783 12.891-12.89V64.343C104.455 62.847 110 56.336 110 48.554c0-8.884-7.228-16.113-16.113-16.113zM35.664 64.883c-2.791 0-5.629-1.683-7.056-4.18l-5.07-8.926H47.79l-5.067 8.919c-1.431 2.504-4.268 4.187-7.06 4.187zm58.223-6.66c-5.331 0-9.668-4.337-9.668-9.668 0-5.331 4.337-9.668 9.668-9.668 5.33 0 9.668 4.337 9.668 9.668 0 5.33-4.337 9.668-9.668 9.668z" fill="#FFC59E"/><path d="M93.887 51.777a3.223 3.223 0 100-6.445 3.223 3.223 0 000 6.445z" fill="#FFC59E"/></svg>